<svg xmlns="http://www.w3.org/2000/svg" viewBox="0 0 32 32" fill="none">
  <defs>
    <linearGradient id="grad" x1="0%" y1="0%" x2="100%" y2="100%">
      <stop offset="0%" style="stop-color:#14ffc8;stop-opacity:1" />
      <stop offset="50%" style="stop-color:#0ea5e9;stop-opacity:1" />
      <stop offset="100%" style="stop-color:#8b5cf6;stop-opacity:1" />
    </linearGradient>
  </defs>
  
  <!-- Background circle with dark theme -->
  <circle cx="16" cy="16" r="15" fill="#0b0b0d" stroke="url(#grad)" stroke-width="2"/>
  
  <!-- Fusion Data Co Icon - Abstract data network -->
  <g fill="url(#grad)">
    <!-- Central hub -->
    <circle cx="16" cy="16" r="2.5" fill="#14ffc8"/>
    
    <!-- Data nodes -->
    <circle cx="8" cy="10" r="1.5"/>
    <circle cx="24" cy="10" r="1.5"/>
    <circle cx="8" cy="22" r="1.5"/>
    <circle cx="24" cy="22" r="1.5"/>
    <circle cx="6" cy="16" r="1"/>
    <circle cx="26" cy="16" r="1"/>
    
    <!-- Connection lines -->
    <line x1="16" y1="16" x2="8" y2="10" stroke="#14ffc8" stroke-width="1" opacity="0.8"/>
    <line x1="16" y1="16" x2="24" y2="10" stroke="#14ffc8" stroke-width="1" opacity="0.8"/>
    <line x1="16" y1="16" x2="8" y2="22" stroke="#14ffc8" stroke-width="1" opacity="0.8"/>
    <line x1="16" y1="16" x2="24" y2="22" stroke="#14ffc8" stroke-width="1" opacity="0.8"/>
    <line x1="16" y1="16" x2="6" y2="16" stroke="#14ffc8" stroke-width="1" opacity="0.6"/>
    <line x1="16" y1="16" x2="26" y2="16" stroke="#14ffc8" stroke-width="1" opacity="0.6"/>
  </g>
  
  <!-- Small accent dots for tech feel -->
  <circle cx="12" cy="8" r="0.5" fill="#8b5cf6" opacity="0.7"/>
  <circle cx="20" cy="8" r="0.5" fill="#8b5cf6" opacity="0.7"/>
  <circle cx="12" cy="24" r="0.5" fill="#8b5cf6" opacity="0.7"/>
  <circle cx="20" cy="24" r="0.5" fill="#8b5cf6" opacity="0.7"/>
</svg>